<svg xmlns="http://www.w3.org/2000/svg" xmlns:xlink="http://www.w3.org/1999/xlink" width="40" zoomAndPan="magnify" viewBox="0 0 30 30.000001" height="40" preserveAspectRatio="xMidYMid meet" version="1.0"><defs><clipPath id="5b7a2b0d47"><path d="M 0.484375 0.273438 L 29 0.273438 L 29 29 L 0.484375 29 Z M 0.484375 0.273438 " clip-rule="nonzero"/></clipPath></defs><path fill="#3131cd" d="M 10.71875 28.394531 C 10.742188 28.398438 10.765625 28.402344 10.785156 28.414062 C 10.894531 28.453125 11.0625 28.5 11.273438 28.539062 C 11.082031 28.492188 10.898438 28.445312 10.71875 28.394531 Z M 10.71875 28.394531 " fill-opacity="1" fill-rule="nonzero"/><path fill="#3131cd" d="M 11.839844 16.496094 C 12.652344 16.503906 13.460938 16.503906 14.273438 16.496094 C 14.28125 17.222656 14.28125 17.945312 14.28125 18.667969 C 13.46875 18.667969 12.652344 18.667969 11.839844 18.671875 C 11.835938 17.949219 11.835938 17.222656 11.839844 16.496094 Z M 11.839844 16.496094 " fill-opacity="1" fill-rule="nonzero"/><path fill="#3131cd" d="M 11.867188 19.441406 C 12.671875 19.425781 13.472656 19.425781 14.273438 19.4375 C 14.273438 20.152344 14.273438 20.871094 14.273438 21.59375 C 13.472656 21.59375 12.671875 21.601562 11.867188 21.589844 C 11.878906 20.878906 11.875 20.160156 11.867188 19.441406 Z M 11.867188 19.441406 " fill-opacity="1" fill-rule="nonzero"/><path fill="#3131cd" d="M 15.171875 16.496094 C 15.425781 16.496094 15.675781 16.496094 15.929688 16.503906 C 16.058594 17.277344 16.378906 18.007812 16.769531 18.679688 C 16.230469 18.664062 15.699219 18.664062 15.167969 18.667969 C 15.160156 17.945312 15.15625 17.222656 15.171875 16.496094 Z M 15.171875 16.496094 " fill-opacity="1" fill-rule="nonzero"/><path fill="#3131cd" d="M 15.179688 19.417969 C 15.984375 19.429688 16.792969 19.429688 17.601562 19.417969 C 17.617188 20.144531 17.613281 20.867188 17.605469 21.59375 C 16.792969 21.59375 15.972656 21.59375 15.160156 21.59375 C 15.160156 20.871094 15.15625 20.148438 15.179688 19.417969 Z M 15.179688 19.417969 " fill-opacity="1" fill-rule="nonzero"/><path fill="#3131cd" d="M 25.558594 15.808594 C 25.554688 14.496094 24.890625 13.1875 24.21875 12.082031 C 23.628906 11.1875 22.003906 9.140625 21.339844 8.394531 C 21.167969 8.203125 20.871094 8.195312 20.691406 8.382812 C 20.597656 8.476562 20.507812 8.589844 20.417969 8.679688 C 19.097656 10.1875 17.847656 11.785156 17.023438 13.625 C 16.625 14.5 16.394531 15.472656 16.539062 16.4375 C 16.75 18.152344 18.070312 19.65625 19.726562 20.132812 C 21.164062 20.53125 22.800781 20.25 23.945312 19.269531 C 25.648438 17.949219 25.558594 15.808594 25.558594 15.808594 Z M 23.199219 19.015625 C 23.148438 18.640625 22.972656 18.230469 23.164062 17.871094 C 23.460938 17.253906 23.804688 16.632812 23.828125 15.929688 C 23.957031 13.882812 23.011719 11.941406 22.015625 10.226562 C 22.054688 10.199219 22.042969 10.203125 22.082031 10.175781 C 23.339844 11.5 24.4375 13.136719 24.820312 14.945312 C 25.058594 16.078125 24.835938 17.277344 24.117188 18.183594 C 23.859375 18.503906 23.558594 18.785156 23.199219 19.015625 Z M 23.199219 19.015625 " fill-opacity="1" fill-rule="nonzero"/><g clip-path="url(#5b7a2b0d47)"><path fill="#3131cd" d="M 28.628906 12.425781 C 28.167969 10.367188 27.414062 8.335938 26.152344 6.632812 C 24.191406 3.992188 21.28125 2.0625 18.070312 1.328125 C 13.617188 0.273438 8.695312 1.550781 5.351562 4.6875 C 3.042969 6.84375 1.351562 9.789062 1.023438 12.957031 C 0.484375 15.785156 1.054688 18.769531 2.328125 21.328125 C 3.816406 24.28125 6.390625 26.664062 9.441406 27.9375 C 9.855469 28.113281 10.28125 28.265625 10.714844 28.398438 C 10.898438 28.449219 11.082031 28.5 11.261719 28.539062 C 11.273438 28.539062 11.28125 28.542969 11.285156 28.542969 C 13.398438 29.03125 15.515625 28.976562 16.046875 28.953125 C 16.074219 28.953125 16.097656 28.953125 16.121094 28.949219 C 16.160156 28.949219 16.175781 28.941406 16.175781 28.941406 C 20.507812 28.574219 24.570312 26.027344 26.828125 22.308594 C 28.648438 19.398438 29.242188 15.796875 28.628906 12.425781 Z M 25.007812 20.742188 C 24.976562 20.1875 24.988281 19.632812 24.976562 19.078125 C 24.308594 19.777344 23.511719 20.371094 22.582031 20.675781 C 22.5625 21.71875 22.605469 22.761719 22.554688 23.804688 C 20.386719 25.648438 17.578125 26.753906 14.71875 26.695312 C 11.996094 26.699219 9.351562 25.640625 7.265625 23.921875 C 7.257812 21.292969 7.265625 18.667969 7.257812 16.042969 C 9.792969 13.5625 12.363281 11.113281 14.890625 8.617188 C 15.8125 9.5 16.710938 10.40625 17.644531 11.28125 C 18.089844 10.636719 18.578125 10.03125 19.023438 9.398438 C 17.679688 8.039062 16.261719 6.753906 14.898438 5.410156 C 13.921875 6.375 12.941406 7.339844 11.941406 8.28125 C 11.929688 8.113281 11.914062 7.777344 11.902344 7.613281 C 10.953125 7.601562 10.011719 7.601562 9.066406 7.609375 C 9.046875 8.761719 9.085938 9.925781 9.035156 11.078125 C 7.859375 12.15625 6.71875 13.273438 5.546875 14.347656 C 5.289062 14.640625 4.824219 14.875 4.886719 15.332031 C 4.886719 17.265625 4.890625 19.199219 4.886719 21.136719 C 2.648438 17.675781 2.554688 12.996094 4.582031 9.414062 C 6.070312 6.710938 8.628906 4.574219 11.609375 3.742188 C 14.398438 2.925781 17.488281 3.195312 20.078125 4.507812 C 22.445312 5.71875 24.421875 7.730469 25.53125 10.148438 C 27.125 13.472656 26.839844 17.574219 25.007812 20.742188 Z M 25.007812 20.742188 " fill-opacity="1" fill-rule="nonzero"/></g></svg>